<?xml version="1.0" encoding="utf-8"?>
<!-- Generator: Adobe Illustrator 19.0.0, SVG Export Plug-In . SVG Version: 6.00 Build 0)  -->
<svg version="1.1" id="Layer_1" xmlns="http://www.w3.org/2000/svg" xmlns:xlink="http://www.w3.org/1999/xlink" x="0px" y="0px"
	 viewBox="0 0 4800 4673" style="enable-background:new 0 0 4800 4673;" xml:space="preserve">
<style type="text/css">
	.st0{fill:#333333;}
</style>
<g>
	<path class="st0" d="M1473.2,1347.6c21.3,0,38.6-17.3,38.6-38.6c0-21.3-17.3-38.6-38.6-38.6c-21.3,0-38.6,17.3-38.6,38.6
		C1434.6,1330.3,1451.9,1347.6,1473.2,1347.6z M1473.2,1278.4c16.9,0,30.6,13.7,30.6,30.6c0,16.9-13.7,30.6-30.6,30.6
		c-16.9,0-30.6-13.7-30.6-30.6C1442.6,1292.1,1456.4,1278.4,1473.2,1278.4z"/>
	<circle class="st0" cx="1473.2" cy="1309" r="10.1"/>
	<path class="st0" d="M1615.4,1309.6c0,21.3,17.3,38.6,38.6,38.6c21.3,0,38.6-17.3,38.6-38.6c0-21.3-17.3-38.6-38.6-38.6
		c-3.7,0-7.3,0.5-10.6,1.5l-11.9-32.5c6.6-2.7,11.1-9.1,11.1-16.3c0-9.8-8.1-17.7-18-17.7c-2.8,0-5.6,0.7-8.1,1.9
		c-5.3-4.2-15-8-32-4.6l1.5,7.8c23.4-4.6,28.4,6.1,28.8,7l2.4,6.1l3.8,10.4c-4.9-2.5-11.7-5.5-19.7-7.5c-21.5-5.4-42.2-2-60.1,10
		c-4.4-2.6-14-7.7-20.5-7.7c-5.6,0-51.6-3.6-75.1-5.5l-4.3-0.4l0.1,21.8l33.8,7c19.2,12.5,48.9,36.6,49.1,49.3l0.1,3.9h61.5l0.9-0.5
		c1-0.5,23.7-12.9,40.9-52.4l8.3,22.8C1623.7,1282,1615.4,1294.8,1615.4,1309.6z M1583.7,1297.5h-52c-1.5-6-5.9-12.9-13.6-20.8
		l86.2,0.5C1594.8,1290,1586.2,1295.9,1583.7,1297.5z M1609.8,1269.2l-100.1-0.6c-1.5-1.4-3.1-2.8-4.8-4.2
		c-12.9-10.8-25.5-19-26.1-19.4l-0.6-0.4l-28.9-6l0-6.6c15.2,1.2,65,5.2,71.4,5.2c4.4,0,13.7,4.8,18.5,7.8l2.3,1.4l2.2-1.6
		c16.6-11.9,35.2-15.3,55.4-10.3c10.9,2.7,19.3,7.3,23.4,9.8C1618.4,1254.3,1614.1,1262.5,1609.8,1269.2z M1638.7,1283.1l7.4,20.2
		c-1.4,1.7-2.2,3.9-2.2,6.3c0,5.6,4.5,10.1,10.1,10.1c5.6,0,10.1-4.5,10.1-10.1c0-5.6-4.5-10.1-10.1-10.1c-0.3,0-0.5,0-0.8,0
		l-7.1-19.5c2.5-0.7,5.2-1,7.9-1c16.9,0,30.6,13.7,30.6,30.6c0,16.9-13.7,30.6-30.6,30.6c-16.9,0-30.6-13.7-30.6-30.6
		C1623.4,1298.3,1629.5,1288.4,1638.7,1283.1z"/>
</g>
</svg>
