<svg xmlns="http://www.w3.org/2000/svg" xmlns:xlink="http://www.w3.org/1999/xlink" version="1.1" x="0px" y="0px" viewBox="0 0 100 125" enable-background="new 0 0 100 100" xml:space="preserve"><g><path d="M25.916,66.144c-3.937,0-7.14-3.203-7.14-7.141c0-3.937,3.203-7.14,7.14-7.14s7.14,3.203,7.14,7.14   C33.056,62.94,29.853,66.144,25.916,66.144z M25.916,52.863c-3.386,0-6.14,2.754-6.14,6.14s2.754,6.141,6.14,6.141   c3.385,0,6.14-2.755,6.14-6.141S29.301,52.863,25.916,52.863z M25.916,62.256c-1.793,0-3.253-1.459-3.253-3.253   c0-1.793,1.459-3.252,3.253-3.252c1.793,0,3.252,1.459,3.252,3.252C29.168,60.797,27.709,62.256,25.916,62.256z M25.916,56.751   c-1.242,0-2.253,1.01-2.253,2.252s1.011,2.253,2.253,2.253c1.242,0,2.252-1.011,2.252-2.253S27.158,56.751,25.916,56.751z"/><path d="M81.555,59.529l-0.002-0.555c-0.015-4.197-3.441-7.611-7.639-7.611c-4.208,0-7.635,3.424-7.64,7.632l-0.001,0.499   l-32.718-0.001l0-0.499c-0.005-4.208-3.432-7.631-7.639-7.631c-4.183,0-7.609,3.404-7.637,7.588l-0.004,0.576l-7.493-1.117L7,52.51   l0.021-1.865l1.777-5.94l21.101-1.404l11.678-9.444h26.596l9.433,9.434h13.957l1.429,7.403L93,52.431l-1.663,6.041L81.555,59.529z    M34.541,58.493l30.749,0.001c0.265-4.527,4.034-8.131,8.625-8.131c4.562,0,8.317,3.564,8.619,8.055l8.021-0.868L92,52.296v-1.508   l-1.263-6.498H77.191l-9.433-9.434H41.931l-11.649,9.421L9.557,45.657L8,50.861v1.355l3.379,5.271l5.923,0.883   c0.326-4.465,4.076-8.008,8.614-8.008C30.506,50.363,34.275,53.967,34.541,58.493z M75.081,44.289H55.688v-8.233h11.549   L75.081,44.289z M56.688,43.289h16.059l-5.938-6.233H56.688V43.289z M54.521,44.289H32.453l10.08-8.233h11.988V44.289z    M35.257,43.289h18.263v-6.233H42.889L35.257,43.289z"/><path d="M73.914,66.144c-3.937,0-7.14-3.203-7.14-7.141c0-3.937,3.203-7.14,7.14-7.14c3.938,0,7.141,3.203,7.141,7.14   C81.055,62.94,77.852,66.144,73.914,66.144z M73.914,52.863c-3.386,0-6.14,2.754-6.14,6.14s2.754,6.141,6.14,6.141   s6.141-2.755,6.141-6.141S77.3,52.863,73.914,52.863z M73.914,62.256c-1.793,0-3.252-1.459-3.252-3.253   c0-1.793,1.459-3.252,3.252-3.252c1.794,0,3.253,1.459,3.253,3.252C77.167,60.797,75.708,62.256,73.914,62.256z M73.914,56.751   c-1.242,0-2.252,1.01-2.252,2.252s1.01,2.253,2.252,2.253s2.253-1.011,2.253-2.253S75.156,56.751,73.914,56.751z"/></g></svg>