<?xml version="1.0" encoding="utf-8"?>
<!-- Generator: Adobe Illustrator 19.0.0, SVG Export Plug-In . SVG Version: 6.00 Build 0)  -->
<svg version="1.1" id="Layer_1" xmlns="http://www.w3.org/2000/svg" xmlns:xlink="http://www.w3.org/1999/xlink" x="245px" y="245px"
	 viewBox="0 0 4800 4673" style="enable-background:new 0 0 4800 4673;" xml:space="preserve">
<style type="text/css">
	.st0{fill:#333333;}
</style>
<g>
	<path class="st0" d="M584.2,1225H410.7c-2.8,0-5.1,2.3-5.1,5.1v39.8c0,2.8,2.3,5.1,5.1,5.1H597c2.8,0,5.1-2.3,5.1-5.1V1243
		C602.2,1233,594.1,1225,584.2,1225z M449,1264.8h-33.2v-29.5H449V1264.8z M512.5,1264.8h-53.2v-29.5h53.2V1264.8z M591.9,1264.8
		h-69.1v-29.5h61.4c4.3,0,7.7,3.5,7.7,7.7V1264.8z"/>
	<path class="st0" d="M648.5,1258.8l-17.7-14.4c-1.3-24.6-21.7-44.2-46.7-44.2H381.9c-2.8,0-5.1,2.3-5.1,5.1v131.9
		c0,2.8,2.3,5.1,5.1,5.1H406c2.4,12.3,13.2,21.5,26.2,21.5c13,0,23.8-9.3,26.2-21.5h50.7h4.5h18.5h7.1h5.9
		c2.4,12.3,13.2,21.5,26.2,21.5c13,0,23.8-9.3,26.2-21.5h47.8c2.8,0,5.1-2.3,5.1-5.1v-74.4C650.4,1261.2,649.7,1259.8,648.5,1258.8z
		 M432.2,1353.5c-9,0-16.4-7.4-16.4-16.4c0,0,0,0,0,0c0,0,0,0,0,0c0-9,7.4-16.4,16.4-16.4c9,0,16.4,7.4,16.4,16.4
		C448.6,1346.2,441.3,1353.5,432.2,1353.5z M571.3,1353.5c-9,0-16.4-7.4-16.4-16.4c0-9,7.4-16.4,16.4-16.4c9,0,16.4,7.4,16.4,16.4
		C587.7,1346.2,580.3,1353.5,571.3,1353.5z M640.1,1332h-42.6c-2.4-12.3-13.2-21.5-26.2-21.5c-13,0-23.8,9.3-26.2,21.5h-5.9h-7.1
		h-18.5h-4.5h-50.7c-2.4-12.3-13.2-21.5-26.2-21.5c-13,0-23.8,9.3-26.2,21.5h-18.9v-32.1h49.1h9.4h17.7h14.4h16.8h10.5h135.1V1332z
		 M640.1,1289.6H505.1h-10.5h-16.8h-14.4h-17.7h-9.4h-49.1v-79.1h197.1c20.1,0,36.4,16.3,36.4,36.4c0,1.5,0.7,3,1.9,4l17.6,14.3
		V1289.6z"/>
	<path class="st0" d="M432.2,1332c-1.4,0-2.7,0.5-3.6,1.5c-1,1-1.5,2.3-1.5,3.6c0,1.4,0.5,2.7,1.5,3.6c1,1,2.3,1.5,3.6,1.5
		c1.3,0,2.7-0.5,3.6-1.5c1-1,1.5-2.3,1.5-3.6c0-1.4-0.6-2.7-1.5-3.6C434.9,1332.5,433.6,1332,432.2,1332z"/>
	<path class="st0" d="M571.3,1332c-1.4,0-2.7,0.5-3.6,1.5c-1,1-1.5,2.3-1.5,3.6c0,1.4,0.6,2.7,1.5,3.6c1,1,2.3,1.5,3.6,1.5
		c1.4,0,2.7-0.5,3.6-1.5c1-1,1.5-2.3,1.5-3.6c0-1.4-0.5-2.7-1.5-3.6C574,1332.5,572.7,1332,571.3,1332z"/>
</g>
</svg>
