<?xml version="1.0" encoding="utf-8"?>
<!-- Generator: Adobe Illustrator 19.0.0, SVG Export Plug-In . SVG Version: 6.00 Build 0)  -->
<svg version="1.1" id="Layer_1" xmlns="http://www.w3.org/2000/svg" xmlns:xlink="http://www.w3.org/1999/xlink" x="0px" y="0px"
	 viewBox="0 0 4800 4673" style="enable-background:new 0 0 4800 4673;" xml:space="preserve">
<style type="text/css">
	.st0{fill:#333333;}
</style>
<g>
	<path class="st0" d="M1218.5,1293.1l-33.7-50.2c-1-1.4-2.6-2.3-4.3-2.3H1123V1212c0-2.8-2.3-5.1-5.1-5.1H950.8
		c-2.8,0-5.1,2.3-5.1,5.1v125.9c0,2.8,2.3,5.1,5.1,5.1h15.4c2.4,11.8,12.9,20.8,25.4,20.8c12.5,0,23-8.9,25.4-20.8h11.3h6h18.3h8.6
		h56.6h10.7c2.4,11.8,12.9,20.8,25.4,20.8s23-8.9,25.4-20.8h34.8c2.8,0,5.1-2.3,5.1-5.1v-42
		C1219.3,1294.9,1219,1293.9,1218.5,1293.1z M991.6,1353.5c-8.6,0-15.6-7-15.6-15.6c0-8.6,7-15.6,15.6-15.6c8.6,0,15.6,7,15.6,15.6
		C1007.3,1346.5,1000.3,1353.5,991.6,1353.5z M1112.8,1245.7v87h-51.4h-8.6h-18.3h-6H1017c-2.4-11.8-12.9-20.8-25.4-20.8
		c-12.5,0-23,8.9-25.4,20.8H956v-115.6h156.8V1245.7z M1154,1353.5c-8.6,0-15.6-7-15.6-15.6c0-8.6,7-15.6,15.6-15.6
		c8.6,0,15.6,7,15.6,15.6C1169.6,1346.5,1162.6,1353.5,1154,1353.5z M1209,1332.8h-29.6c-2.4-11.8-12.9-20.8-25.4-20.8
		s-23,8.9-25.4,20.8h-5.6v-81.9h54.7l31.3,46.6V1332.8z"/>
	<path class="st0" d="M1094.9,1255.2h-85.6h-2.9h-12.1c-2.8,0-5.1,2.3-5.1,5.1c0,2.8,2.3,5.1,5.1,5.1h12.1h2.9h85.6
		c2.8,0,5.1-2.3,5.1-5.1C1100,1257.5,1097.7,1255.2,1094.9,1255.2z"/>
	<path class="st0" d="M1075.9,1284.4h-13.5h-1.4h-87.1c-2.8,0-5.1,2.3-5.1,5.1c0,2.8,2.3,5.1,5.1,5.1h87.1h1.4h13.5
		c2.8,0,5.1-2.3,5.1-5.1C1081,1286.7,1078.7,1284.4,1075.9,1284.4z"/>
	<path class="st0" d="M1170.6,1259.7h-33.1c-2.8,0-5.1,2.3-5.1,5.1v27.8c0,2.8,2.3,5.1,5.1,5.1l51.7,0c1.9,0,3.6-1,4.5-2.7
		c0.9-1.7,0.8-3.7-0.3-5.3l-18.7-27.8C1173.9,1260.6,1172.3,1259.7,1170.6,1259.7z M1142.7,1287.5V1270h25.2l11.8,17.5H1142.7z"/>
</g>
</svg>
